<svg xmlns="http://www.w3.org/2000/svg" width="805" height="600"><rect width="805" height="600" x="0" y="0" fill="#FFFFFF" id="background"/><g transform="translate(50,50)" id="visualization"><g id="axis"><g transform="translate(0,500)" fill="none" font-size="10" font-family="sans-serif" text-anchor="middle"><path class="domain" stroke="currentColor" d="M0,6V0H705V6"/><g class="tick" opacity="1" transform="translate(0,0)"><line stroke="currentColor" y2="6"/><text fill="currentColor" y="9" dy="0.71em">6</text></g><g class="tick" opacity="1" transform="translate(78,0)"><line stroke="currentColor" y2="6"/><text fill="currentColor" y="9" dy="0.71em">8</text></g><g class="tick" opacity="1" transform="translate(157,0)"><line stroke="currentColor" y2="6"/><text fill="currentColor" y="9" dy="0.71em">10</text></g><g class="tick" opacity="1" transform="translate(235,0)"><line stroke="currentColor" y2="6"/><text fill="currentColor" y="9" dy="0.71em">12</text></g><g class="tick" opacity="1" transform="translate(313,0)"><line stroke="currentColor" y2="6"/><text fill="currentColor" y="9" dy="0.71em">14</text></g><g class="tick" opacity="1" transform="translate(392,0)"><line stroke="currentColor" y2="6"/><text fill="currentColor" y="9" dy="0.71em">16</text></g><g class="tick" opacity="1" transform="translate(470,0)"><line stroke="currentColor" y2="6"/><text fill="currentColor" y="9" dy="0.71em">18</text></g><g class="tick" opacity="1" transform="translate(548,0)"><line stroke="currentColor" y2="6"/><text fill="currentColor" y="9" dy="0.71em">20</text></g><g class="tick" opacity="1" transform="translate(627,0)"><line stroke="currentColor" y2="6"/><text fill="currentColor" y="9" dy="0.71em">22</text></g><g class="tick" opacity="1" transform="translate(705,0)"><line stroke="currentColor" y2="6"/><text fill="currentColor" y="9" dy="0.71em">24</text></g><text x="705" dy="-5" text-anchor="end" style="font-family: Arial, sans-serif; font-size: 12px; fill: rgb(123, 123, 123); font-weight: bold;">Hora exacta</text></g><g fill="none" font-size="10" font-family="sans-serif" text-anchor="end"><path class="domain" stroke="currentColor" d="M-6,500H0V0H-6"/><g class="tick" opacity="1" transform="translate(0,500)"><line stroke="currentColor" x2="-6"/><text fill="currentColor" x="-9" dy="0.32em">300</text></g><g class="tick" opacity="1" transform="translate(0,458)"><line stroke="currentColor" x2="-6"/><text fill="currentColor" x="-9" dy="0.32em">350</text></g><g class="tick" opacity="1" transform="translate(0,417)"><line stroke="currentColor" x2="-6"/><text fill="currentColor" x="-9" dy="0.32em">400</text></g><g class="tick" opacity="1" transform="translate(0,375)"><line stroke="currentColor" x2="-6"/><text fill="currentColor" x="-9" dy="0.32em">450</text></g><g class="tick" opacity="1" transform="translate(0,333)"><line stroke="currentColor" x2="-6"/><text fill="currentColor" x="-9" dy="0.32em">500</text></g><g class="tick" opacity="1" transform="translate(0,292)"><line stroke="currentColor" x2="-6"/><text fill="currentColor" x="-9" dy="0.32em">550</text></g><g class="tick" opacity="1" transform="translate(0,250)"><line stroke="currentColor" x2="-6"/><text fill="currentColor" x="-9" dy="0.32em">600</text></g><g class="tick" opacity="1" transform="translate(0,208)"><line stroke="currentColor" x2="-6"/><text fill="currentColor" x="-9" dy="0.32em">650</text></g><g class="tick" opacity="1" transform="translate(0,167)"><line stroke="currentColor" x2="-6"/><text fill="currentColor" x="-9" dy="0.32em">700</text></g><g class="tick" opacity="1" transform="translate(0,125)"><line stroke="currentColor" x2="-6"/><text fill="currentColor" x="-9" dy="0.32em">750</text></g><g class="tick" opacity="1" transform="translate(0,83)"><line stroke="currentColor" x2="-6"/><text fill="currentColor" x="-9" dy="0.32em">800</text></g><g class="tick" opacity="1" transform="translate(0,42)"><line stroke="currentColor" x2="-6"/><text fill="currentColor" x="-9" dy="0.32em">850</text></g><g class="tick" opacity="1" transform="translate(0,0)"><line stroke="currentColor" x2="-6"/><text fill="currentColor" x="-9" dy="0.32em">900</text></g><text x="4" text-anchor="start" dominant-baseline="hanging" style="font-family: Arial, sans-serif; font-size: 12px; fill: rgb(123, 123, 123); font-weight: bold;">Valor</text></g></g><g id="viz"><g><path d="m0,-22l19.05255888325765,10.999999999999998l3.552713678800501e-15,21.999999999999996l-19.05255888325765,11.000000000000005l-19.05255888325765,-10.99999999999999l-1.4210854715202004e-14,-21.999999999999996z" transform="translate(74.47818472546172,451.5)" fill="rgb(205, 235, 166)" stroke="white"/><text text-anchor="middle" dominant-baseline="middle" x="74.47818472546172" y="451.5" style="font-family: Arial, sans-serif; font-size: 10px; fill: black; font-weight: normal;">1</text></g><g><path d="m0,-22l19.05255888325765,10.999999999999998l3.552713678800501e-15,21.999999999999996l-19.05255888325765,11.000000000000005l-19.05255888325765,-10.99999999999999l-1.4210854715202004e-14,-21.999999999999996z" transform="translate(111.71727708819257,258)" fill="rgb(205, 235, 166)" stroke="white"/><text text-anchor="middle" dominant-baseline="middle" x="111.71727708819257" y="258" style="font-family: Arial, sans-serif; font-size: 10px; fill: black; font-weight: normal;">1</text></g><g><path d="m0,-22l19.05255888325765,10.999999999999998l3.552713678800501e-15,21.999999999999996l-19.05255888325765,11.000000000000005l-19.05255888325765,-10.99999999999999l-1.4210854715202004e-14,-21.999999999999996z" transform="translate(391.01046980867403,225.75)" fill="rgb(205, 235, 166)" stroke="white"/><text text-anchor="middle" dominant-baseline="middle" x="391.01046980867403" y="225.75" style="font-family: Arial, sans-serif; font-size: 10px; fill: black; font-weight: normal;">1</text></g><g><path d="m0,-22l19.05255888325765,10.999999999999998l3.552713678800501e-15,21.999999999999996l-19.05255888325765,11.000000000000005l-19.05255888325765,-10.99999999999999l-1.4210854715202004e-14,-21.999999999999996z" transform="translate(539.9668392595975,225.75)" fill="rgb(180, 210, 143)" stroke="white"/><text text-anchor="middle" dominant-baseline="middle" x="539.9668392595975" y="225.75" style="font-family: Arial, sans-serif; font-size: 10px; fill: black; font-weight: normal;">2</text></g><g><path d="m0,-22l19.05255888325765,10.999999999999998l3.552713678800501e-15,21.999999999999996l-19.05255888325765,11.000000000000005l-19.05255888325765,-10.99999999999999l-1.4210854715202004e-14,-21.999999999999996z" transform="translate(18.61954618136543,225.75)" fill="rgb(205, 235, 166)" stroke="white"/><text text-anchor="middle" dominant-baseline="middle" x="18.61954618136543" y="225.75" style="font-family: Arial, sans-serif; font-size: 10px; fill: black; font-weight: normal;">1</text></g><g><path d="m0,-22l19.05255888325765,10.999999999999998l3.552713678800501e-15,21.999999999999996l-19.05255888325765,11.000000000000005l-19.05255888325765,-10.99999999999999l-1.4210854715202004e-14,-21.999999999999996z" transform="translate(316.5322850832123,161.25)" fill="rgb(180, 210, 143)" stroke="white"/><text text-anchor="middle" dominant-baseline="middle" x="316.5322850832123" y="161.25" style="font-family: Arial, sans-serif; font-size: 10px; fill: black; font-weight: normal;">2</text></g><g><path d="m0,-22l19.05255888325765,10.999999999999998l3.552713678800501e-15,21.999999999999996l-19.05255888325765,11.000000000000005l-19.05255888325765,-10.99999999999999l-1.4210854715202004e-14,-21.999999999999996z" transform="translate(204.81500799501973,290.25)" fill="rgb(180, 210, 143)" stroke="white"/><text text-anchor="middle" dominant-baseline="middle" x="204.81500799501973" y="290.25" style="font-family: Arial, sans-serif; font-size: 10px; fill: black; font-weight: normal;">2</text></g><g><path d="m0,-22l19.05255888325765,10.999999999999998l3.552713678800501e-15,21.999999999999996l-19.05255888325765,11.000000000000005l-19.05255888325765,-10.99999999999999l-1.4210854715202004e-14,-21.999999999999996z" transform="translate(539.9668392595975,354.75)" fill="rgb(180, 210, 143)" stroke="white"/><text text-anchor="middle" dominant-baseline="middle" x="539.9668392595975" y="354.75" style="font-family: Arial, sans-serif; font-size: 10px; fill: black; font-weight: normal;">2</text></g><g><path d="m0,-22l19.05255888325765,10.999999999999998l3.552713678800501e-15,21.999999999999996l-19.05255888325765,11.000000000000005l-19.05255888325765,-10.99999999999999l-1.4210854715202004e-14,-21.999999999999996z" transform="translate(148.95636945092343,193.5)" fill="rgb(205, 235, 166)" stroke="white"/><text text-anchor="middle" dominant-baseline="middle" x="148.95636945092343" y="193.5" style="font-family: Arial, sans-serif; font-size: 10px; fill: black; font-weight: normal;">1</text></g><g><path d="m0,-22l19.05255888325765,10.999999999999998l3.552713678800501e-15,21.999999999999996l-19.05255888325765,11.000000000000005l-19.05255888325765,-10.99999999999999l-1.4210854715202004e-14,-21.999999999999996z" transform="translate(74.47818472546172,193.5)" fill="rgb(205, 235, 166)" stroke="white"/><text text-anchor="middle" dominant-baseline="middle" x="74.47818472546172" y="193.5" style="font-family: Arial, sans-serif; font-size: 10px; fill: black; font-weight: normal;">1</text></g><g><path d="m0,-22l19.05255888325765,10.999999999999998l3.552713678800501e-15,21.999999999999996l-19.05255888325765,11.000000000000005l-19.05255888325765,-10.99999999999999l-1.4210854715202004e-14,-21.999999999999996z" transform="translate(55.85863854409629,161.25)" fill="rgb(155, 184, 119)" stroke="white"/><text text-anchor="middle" dominant-baseline="middle" x="55.85863854409629" y="161.25" style="font-family: Arial, sans-serif; font-size: 10px; fill: black; font-weight: normal;">3</text></g><g><path d="m0,-22l19.05255888325765,10.999999999999998l3.552713678800501e-15,21.999999999999996l-19.05255888325765,11.000000000000005l-19.05255888325765,-10.99999999999999l-1.4210854715202004e-14,-21.999999999999996z" transform="translate(260.673646539116,258)" fill="rgb(180, 210, 143)" stroke="white"/><text text-anchor="middle" dominant-baseline="middle" x="260.673646539116" y="258" style="font-family: Arial, sans-serif; font-size: 10px; fill: black; font-weight: normal;">2</text></g><g><path d="m0,-22l19.05255888325765,10.999999999999998l3.552713678800501e-15,21.999999999999996l-19.05255888325765,11.000000000000005l-19.05255888325765,-10.99999999999999l-1.4210854715202004e-14,-21.999999999999996z" transform="translate(428.2495621714049,225.75)" fill="rgb(205, 235, 166)" stroke="white"/><text text-anchor="middle" dominant-baseline="middle" x="428.2495621714049" y="225.75" style="font-family: Arial, sans-serif; font-size: 10px; fill: black; font-weight: normal;">1</text></g><g><path d="m0,-22l19.05255888325765,10.999999999999998l3.552713678800501e-15,21.999999999999996l-19.05255888325765,11.000000000000005l-19.05255888325765,-10.99999999999999l-1.4210854715202004e-14,-21.999999999999996z" transform="translate(614.4450239850592,161.25)" fill="rgb(205, 235, 166)" stroke="white"/><text text-anchor="middle" dominant-baseline="middle" x="614.4450239850592" y="161.25" style="font-family: Arial, sans-serif; font-size: 10px; fill: black; font-weight: normal;">1</text></g><g><path d="m0,-22l19.05255888325765,10.999999999999998l3.552713678800501e-15,21.999999999999996l-19.05255888325765,11.000000000000005l-19.05255888325765,-10.99999999999999l-1.4210854715202004e-14,-21.999999999999996z" transform="translate(186.19546181365428,193.5)" fill="rgb(205, 235, 166)" stroke="white"/><text text-anchor="middle" dominant-baseline="middle" x="186.19546181365428" y="193.5" style="font-family: Arial, sans-serif; font-size: 10px; fill: black; font-weight: normal;">1</text></g><g><path d="m0,-22l19.05255888325765,10.999999999999998l3.552713678800501e-15,21.999999999999996l-19.05255888325765,11.000000000000005l-19.05255888325765,-10.99999999999999l-1.4210854715202004e-14,-21.999999999999996z" transform="translate(633.0645701664246,193.5)" fill="rgb(205, 235, 166)" stroke="white"/><text text-anchor="middle" dominant-baseline="middle" x="633.0645701664246" y="193.5" style="font-family: Arial, sans-serif; font-size: 10px; fill: black; font-weight: normal;">1</text></g><g><path d="m0,-22l19.05255888325765,10.999999999999998l3.552713678800501e-15,21.999999999999996l-19.05255888325765,11.000000000000005l-19.05255888325765,-10.99999999999999l-1.4210854715202004e-14,-21.999999999999996z" transform="translate(465.4886545341357,161.25)" fill="rgb(180, 210, 143)" stroke="white"/><text text-anchor="middle" dominant-baseline="middle" x="465.4886545341357" y="161.25" style="font-family: Arial, sans-serif; font-size: 10px; fill: black; font-weight: normal;">2</text></g><g><path d="m0,-22l19.05255888325765,10.999999999999998l3.552713678800501e-15,21.999999999999996l-19.05255888325765,11.000000000000005l-19.05255888325765,-10.99999999999999l-1.4210854715202004e-14,-21.999999999999996z" transform="translate(614.4450239850592,290.25)" fill="rgb(205, 235, 166)" stroke="white"/><text text-anchor="middle" dominant-baseline="middle" x="614.4450239850592" y="290.25" style="font-family: Arial, sans-serif; font-size: 10px; fill: black; font-weight: normal;">1</text></g><g><path d="m0,-22l19.05255888325765,10.999999999999998l3.552713678800501e-15,21.999999999999996l-19.05255888325765,11.000000000000005l-19.05255888325765,-10.99999999999999l-1.4210854715202004e-14,-21.999999999999996z" transform="translate(353.77137744594313,161.25)" fill="rgb(180, 210, 143)" stroke="white"/><text text-anchor="middle" dominant-baseline="middle" x="353.77137744594313" y="161.25" style="font-family: Arial, sans-serif; font-size: 10px; fill: black; font-weight: normal;">2</text></g><g><path d="m0,-22l19.05255888325765,10.999999999999998l3.552713678800501e-15,21.999999999999996l-19.05255888325765,11.000000000000005l-19.05255888325765,-10.99999999999999l-1.4210854715202004e-14,-21.999999999999996z" transform="translate(93.09773090682714,161.25)" fill="rgb(81, 108, 49)" stroke="white"/><text text-anchor="middle" dominant-baseline="middle" x="93.09773090682714" y="161.25" style="font-family: Arial, sans-serif; font-size: 10px; fill: black; font-weight: normal;">6</text></g><g><path d="m0,-22l19.05255888325765,10.999999999999998l3.552713678800501e-15,21.999999999999996l-19.05255888325765,11.000000000000005l-19.05255888325765,-10.99999999999999l-1.4210854715202004e-14,-21.999999999999996z" transform="translate(167.57591563228885,225.75)" fill="rgb(205, 235, 166)" stroke="white"/><text text-anchor="middle" dominant-baseline="middle" x="167.57591563228885" y="225.75" style="font-family: Arial, sans-serif; font-size: 10px; fill: black; font-weight: normal;">1</text></g><g><path d="m0,-22l19.05255888325765,10.999999999999998l3.552713678800501e-15,21.999999999999996l-19.05255888325765,11.000000000000005l-19.05255888325765,-10.99999999999999l-1.4210854715202004e-14,-21.999999999999996z" transform="translate(446.8691083527703,322.5)" fill="rgb(155, 184, 119)" stroke="white"/><text text-anchor="middle" dominant-baseline="middle" x="446.8691083527703" y="322.5" style="font-family: Arial, sans-serif; font-size: 10px; fill: black; font-weight: normal;">3</text></g><g><path d="m0,-22l19.05255888325765,10.999999999999998l3.552713678800501e-15,21.999999999999996l-19.05255888325765,11.000000000000005l-19.05255888325765,-10.99999999999999l-1.4210854715202004e-14,-21.999999999999996z" transform="translate(670.3036625291554,387)" fill="rgb(180, 210, 143)" stroke="white"/><text text-anchor="middle" dominant-baseline="middle" x="670.3036625291554" y="387" style="font-family: Arial, sans-serif; font-size: 10px; fill: black; font-weight: normal;">2</text></g><g><path d="m0,-22l19.05255888325765,10.999999999999998l3.552713678800501e-15,21.999999999999996l-19.05255888325765,11.000000000000005l-19.05255888325765,-10.99999999999999l-1.4210854715202004e-14,-21.999999999999996z" transform="translate(260.673646539116,322.5)" fill="rgb(205, 235, 166)" stroke="white"/><text text-anchor="middle" dominant-baseline="middle" x="260.673646539116" y="322.5" style="font-family: Arial, sans-serif; font-size: 10px; fill: black; font-weight: normal;">1</text></g><g><path d="m0,-22l19.05255888325765,10.999999999999998l3.552713678800501e-15,21.999999999999996l-19.05255888325765,11.000000000000005l-19.05255888325765,-10.99999999999999l-1.4210854715202004e-14,-21.999999999999996z" transform="translate(502.72774689686656,161.25)" fill="rgb(180, 210, 143)" stroke="white"/><text text-anchor="middle" dominant-baseline="middle" x="502.72774689686656" y="161.25" style="font-family: Arial, sans-serif; font-size: 10px; fill: black; font-weight: normal;">2</text></g><g><path d="m0,-22l19.05255888325765,10.999999999999998l3.552713678800501e-15,21.999999999999996l-19.05255888325765,11.000000000000005l-19.05255888325765,-10.99999999999999l-1.4210854715202004e-14,-21.999999999999996z" transform="translate(223.43455417638515,322.5)" fill="rgb(180, 210, 143)" stroke="white"/><text text-anchor="middle" dominant-baseline="middle" x="223.43455417638515" y="322.5" style="font-family: Arial, sans-serif; font-size: 10px; fill: black; font-weight: normal;">2</text></g><g><path d="m0,-22l19.05255888325765,10.999999999999998l3.552713678800501e-15,21.999999999999996l-19.05255888325765,11.000000000000005l-19.05255888325765,-10.99999999999999l-1.4210854715202004e-14,-21.999999999999996z" transform="translate(465.4886545341357,419.25)" fill="rgb(205, 235, 166)" stroke="white"/><text text-anchor="middle" dominant-baseline="middle" x="465.4886545341357" y="419.25" style="font-family: Arial, sans-serif; font-size: 10px; fill: black; font-weight: normal;">1</text></g><g><path d="m0,-22l19.05255888325765,10.999999999999998l3.552713678800501e-15,21.999999999999996l-19.05255888325765,11.000000000000005l-19.05255888325765,-10.99999999999999l-1.4210854715202004e-14,-21.999999999999996z" transform="translate(316.5322850832123,419.25)" fill="rgb(205, 235, 166)" stroke="white"/><text text-anchor="middle" dominant-baseline="middle" x="316.5322850832123" y="419.25" style="font-family: Arial, sans-serif; font-size: 10px; fill: black; font-weight: normal;">1</text></g><g><path d="m0,-22l19.05255888325765,10.999999999999998l3.552713678800501e-15,21.999999999999996l-19.05255888325765,11.000000000000005l-19.05255888325765,-10.99999999999999l-1.4210854715202004e-14,-21.999999999999996z" transform="translate(316.5322850832123,354.75)" fill="rgb(205, 235, 166)" stroke="white"/><text text-anchor="middle" dominant-baseline="middle" x="316.5322850832123" y="354.75" style="font-family: Arial, sans-serif; font-size: 10px; fill: black; font-weight: normal;">1</text></g><g><path d="m0,-22l19.05255888325765,10.999999999999998l3.552713678800501e-15,21.999999999999996l-19.05255888325765,11.000000000000005l-19.05255888325765,-10.99999999999999l-1.4210854715202004e-14,-21.999999999999996z" transform="translate(316.5322850832123,225.75)" fill="rgb(180, 210, 143)" stroke="white"/><text text-anchor="middle" dominant-baseline="middle" x="316.5322850832123" y="225.75" style="font-family: Arial, sans-serif; font-size: 10px; fill: black; font-weight: normal;">2</text></g><g><path d="m0,-22l19.05255888325765,10.999999999999998l3.552713678800501e-15,21.999999999999996l-19.05255888325765,11.000000000000005l-19.05255888325765,-10.99999999999999l-1.4210854715202004e-14,-21.999999999999996z" transform="translate(558.5863854409629,451.5)" fill="rgb(205, 235, 166)" stroke="white"/><text text-anchor="middle" dominant-baseline="middle" x="558.5863854409629" y="451.5" style="font-family: Arial, sans-serif; font-size: 10px; fill: black; font-weight: normal;">1</text></g><g><path d="m0,-22l19.05255888325765,10.999999999999998l3.552713678800501e-15,21.999999999999996l-19.05255888325765,11.000000000000005l-19.05255888325765,-10.99999999999999l-1.4210854715202004e-14,-21.999999999999996z" transform="translate(204.81500799501973,161.25)" fill="rgb(205, 235, 166)" stroke="white"/><text text-anchor="middle" dominant-baseline="middle" x="204.81500799501973" y="161.25" style="font-family: Arial, sans-serif; font-size: 10px; fill: black; font-weight: normal;">1</text></g><g><path d="m0,-22l19.05255888325765,10.999999999999998l3.552713678800501e-15,21.999999999999996l-19.05255888325765,11.000000000000005l-19.05255888325765,-10.99999999999999l-1.4210854715202004e-14,-21.999999999999996z" transform="translate(577.2059316223283,354.75)" fill="rgb(205, 235, 166)" stroke="white"/><text text-anchor="middle" dominant-baseline="middle" x="577.2059316223283" y="354.75" style="font-family: Arial, sans-serif; font-size: 10px; fill: black; font-weight: normal;">1</text></g><g><path d="m0,-22l19.05255888325765,10.999999999999998l3.552713678800501e-15,21.999999999999996l-19.05255888325765,11.000000000000005l-19.05255888325765,-10.99999999999999l-1.4210854715202004e-14,-21.999999999999996z" transform="translate(353.77137744594313,225.75)" fill="rgb(205, 235, 166)" stroke="white"/><text text-anchor="middle" dominant-baseline="middle" x="353.77137744594313" y="225.75" style="font-family: Arial, sans-serif; font-size: 10px; fill: black; font-weight: normal;">1</text></g><g><path d="m0,-22l19.05255888325765,10.999999999999998l3.552713678800501e-15,21.999999999999996l-19.05255888325765,11.000000000000005l-19.05255888325765,-10.99999999999999l-1.4210854715202004e-14,-21.999999999999996z" transform="translate(279.29319272048144,161.25)" fill="rgb(180, 210, 143)" stroke="white"/><text text-anchor="middle" dominant-baseline="middle" x="279.29319272048144" y="161.25" style="font-family: Arial, sans-serif; font-size: 10px; fill: black; font-weight: normal;">2</text></g><g><path d="m0,-22l19.05255888325765,10.999999999999998l3.552713678800501e-15,21.999999999999996l-19.05255888325765,11.000000000000005l-19.05255888325765,-10.99999999999999l-1.4210854715202004e-14,-21.999999999999996z" transform="translate(521.347293078232,322.5)" fill="rgb(205, 235, 166)" stroke="white"/><text text-anchor="middle" dominant-baseline="middle" x="521.347293078232" y="322.5" style="font-family: Arial, sans-serif; font-size: 10px; fill: black; font-weight: normal;">1</text></g><g><path d="m0,-22l19.05255888325765,10.999999999999998l3.552713678800501e-15,21.999999999999996l-19.05255888325765,11.000000000000005l-19.05255888325765,-10.99999999999999l-1.4210854715202004e-14,-21.999999999999996z" transform="translate(614.4450239850592,225.75)" fill="rgb(205, 235, 166)" stroke="white"/><text text-anchor="middle" dominant-baseline="middle" x="614.4450239850592" y="225.75" style="font-family: Arial, sans-serif; font-size: 10px; fill: black; font-weight: normal;">1</text></g><g><path d="m0,-22l19.05255888325765,10.999999999999998l3.552713678800501e-15,21.999999999999996l-19.05255888325765,11.000000000000005l-19.05255888325765,-10.99999999999999l-1.4210854715202004e-14,-21.999999999999996z" transform="translate(242.05410035775057,225.75)" fill="rgb(205, 235, 166)" stroke="white"/><text text-anchor="middle" dominant-baseline="middle" x="242.05410035775057" y="225.75" style="font-family: Arial, sans-serif; font-size: 10px; fill: black; font-weight: normal;">1</text></g><g><path d="m0,-22l19.05255888325765,10.999999999999998l3.552713678800501e-15,21.999999999999996l-19.05255888325765,11.000000000000005l-19.05255888325765,-10.99999999999999l-1.4210854715202004e-14,-21.999999999999996z" transform="translate(577.2059316223283,161.25)" fill="rgb(131, 159, 96)" stroke="white"/><text text-anchor="middle" dominant-baseline="middle" x="577.2059316223283" y="161.25" style="font-family: Arial, sans-serif; font-size: 10px; fill: black; font-weight: normal;">4</text></g><g><path d="m0,-22l19.05255888325765,10.999999999999998l3.552713678800501e-15,21.999999999999996l-19.05255888325765,11.000000000000005l-19.05255888325765,-10.99999999999999l-1.4210854715202004e-14,-21.999999999999996z" transform="translate(148.95636945092343,258)" fill="rgb(180, 210, 143)" stroke="white"/><text text-anchor="middle" dominant-baseline="middle" x="148.95636945092343" y="258" style="font-family: Arial, sans-serif; font-size: 10px; fill: black; font-weight: normal;">2</text></g><g><path d="m0,-22l19.05255888325765,10.999999999999998l3.552713678800501e-15,21.999999999999996l-19.05255888325765,11.000000000000005l-19.05255888325765,-10.99999999999999l-1.4210854715202004e-14,-21.999999999999996z" transform="translate(484.10820071550114,258)" fill="rgb(205, 235, 166)" stroke="white"/><text text-anchor="middle" dominant-baseline="middle" x="484.10820071550114" y="258" style="font-family: Arial, sans-serif; font-size: 10px; fill: black; font-weight: normal;">1</text></g><g><path d="m0,-22l19.05255888325765,10.999999999999998l3.552713678800501e-15,21.999999999999996l-19.05255888325765,11.000000000000005l-19.05255888325765,-10.99999999999999l-1.4210854715202004e-14,-21.999999999999996z" transform="translate(93.09773090682714,354.75)" fill="rgb(205, 235, 166)" stroke="white"/><text text-anchor="middle" dominant-baseline="middle" x="93.09773090682714" y="354.75" style="font-family: Arial, sans-serif; font-size: 10px; fill: black; font-weight: normal;">1</text></g><g><path d="m0,-22l19.05255888325765,10.999999999999998l3.552713678800501e-15,21.999999999999996l-19.05255888325765,11.000000000000005l-19.05255888325765,-10.99999999999999l-1.4210854715202004e-14,-21.999999999999996z" transform="translate(0,193.5)" fill="rgb(205, 235, 166)" stroke="white"/><text text-anchor="middle" dominant-baseline="middle" x="0" y="193.5" style="font-family: Arial, sans-serif; font-size: 10px; fill: black; font-weight: normal;">1</text></g><g><path d="m0,-22l19.05255888325765,10.999999999999998l3.552713678800501e-15,21.999999999999996l-19.05255888325765,11.000000000000005l-19.05255888325765,-10.99999999999999l-1.4210854715202004e-14,-21.999999999999996z" transform="translate(223.43455417638515,258)" fill="rgb(155, 184, 119)" stroke="white"/><text text-anchor="middle" dominant-baseline="middle" x="223.43455417638515" y="258" style="font-family: Arial, sans-serif; font-size: 10px; fill: black; font-weight: normal;">3</text></g><g><path d="m0,-22l19.05255888325765,10.999999999999998l3.552713678800501e-15,21.999999999999996l-19.05255888325765,11.000000000000005l-19.05255888325765,-10.99999999999999l-1.4210854715202004e-14,-21.999999999999996z" transform="translate(484.10820071550114,322.5)" fill="rgb(205, 235, 166)" stroke="white"/><text text-anchor="middle" dominant-baseline="middle" x="484.10820071550114" y="322.5" style="font-family: Arial, sans-serif; font-size: 10px; fill: black; font-weight: normal;">1</text></g><g><path d="m0,-22l19.05255888325765,10.999999999999998l3.552713678800501e-15,21.999999999999996l-19.05255888325765,11.000000000000005l-19.05255888325765,-10.99999999999999l-1.4210854715202004e-14,-21.999999999999996z" transform="translate(651.68411634779,290.25)" fill="rgb(155, 184, 119)" stroke="white"/><text text-anchor="middle" dominant-baseline="middle" x="651.68411634779" y="290.25" style="font-family: Arial, sans-serif; font-size: 10px; fill: black; font-weight: normal;">3</text></g><g><path d="m0,-22l19.05255888325765,10.999999999999998l3.552713678800501e-15,21.999999999999996l-19.05255888325765,11.000000000000005l-19.05255888325765,-10.99999999999999l-1.4210854715202004e-14,-21.999999999999996z" transform="translate(558.5863854409629,258)" fill="rgb(205, 235, 166)" stroke="white"/><text text-anchor="middle" dominant-baseline="middle" x="558.5863854409629" y="258" style="font-family: Arial, sans-serif; font-size: 10px; fill: black; font-weight: normal;">1</text></g><g><path d="m0,-22l19.05255888325765,10.999999999999998l3.552713678800501e-15,21.999999999999996l-19.05255888325765,11.000000000000005l-19.05255888325765,-10.99999999999999l-1.4210854715202004e-14,-21.999999999999996z" transform="translate(428.2495621714049,290.25)" fill="rgb(180, 210, 143)" stroke="white"/><text text-anchor="middle" dominant-baseline="middle" x="428.2495621714049" y="290.25" style="font-family: Arial, sans-serif; font-size: 10px; fill: black; font-weight: normal;">2</text></g><g><path d="m0,-22l19.05255888325765,10.999999999999998l3.552713678800501e-15,21.999999999999996l-19.05255888325765,11.000000000000005l-19.05255888325765,-10.99999999999999l-1.4210854715202004e-14,-21.999999999999996z" transform="translate(502.72774689686656,419.25)" fill="rgb(205, 235, 166)" stroke="white"/><text text-anchor="middle" dominant-baseline="middle" x="502.72774689686656" y="419.25" style="font-family: Arial, sans-serif; font-size: 10px; fill: black; font-weight: normal;">1</text></g><g><path d="m0,-22l19.05255888325765,10.999999999999998l3.552713678800501e-15,21.999999999999996l-19.05255888325765,11.000000000000005l-19.05255888325765,-10.99999999999999l-1.4210854715202004e-14,-21.999999999999996z" transform="translate(55.85863854409629,225.75)" fill="rgb(205, 235, 166)" stroke="white"/><text text-anchor="middle" dominant-baseline="middle" x="55.85863854409629" y="225.75" style="font-family: Arial, sans-serif; font-size: 10px; fill: black; font-weight: normal;">1</text></g><g><path d="m0,-22l19.05255888325765,10.999999999999998l3.552713678800501e-15,21.999999999999996l-19.05255888325765,11.000000000000005l-19.05255888325765,-10.99999999999999l-1.4210854715202004e-14,-21.999999999999996z" transform="translate(539.9668392595975,483.75)" fill="rgb(205, 235, 166)" stroke="white"/><text text-anchor="middle" dominant-baseline="middle" x="539.9668392595975" y="483.75" style="font-family: Arial, sans-serif; font-size: 10px; fill: black; font-weight: normal;">1</text></g><g><path d="m0,-22l19.05255888325765,10.999999999999998l3.552713678800501e-15,21.999999999999996l-19.05255888325765,11.000000000000005l-19.05255888325765,-10.99999999999999l-1.4210854715202004e-14,-21.999999999999996z" transform="translate(335.1518312645777,322.5)" fill="rgb(180, 210, 143)" stroke="white"/><text text-anchor="middle" dominant-baseline="middle" x="335.1518312645777" y="322.5" style="font-family: Arial, sans-serif; font-size: 10px; fill: black; font-weight: normal;">2</text></g><g><path d="m0,-22l19.05255888325765,10.999999999999998l3.552713678800501e-15,21.999999999999996l-19.05255888325765,11.000000000000005l-19.05255888325765,-10.99999999999999l-1.4210854715202004e-14,-21.999999999999996z" transform="translate(130.336823269558,161.25)" fill="rgb(180, 210, 143)" stroke="white"/><text text-anchor="middle" dominant-baseline="middle" x="130.336823269558" y="161.25" style="font-family: Arial, sans-serif; font-size: 10px; fill: black; font-weight: normal;">2</text></g><g><path d="m0,-22l19.05255888325765,10.999999999999998l3.552713678800501e-15,21.999999999999996l-19.05255888325765,11.000000000000005l-19.05255888325765,-10.99999999999999l-1.4210854715202004e-14,-21.999999999999996z" transform="translate(614.4450239850592,419.25)" fill="rgb(205, 235, 166)" stroke="white"/><text text-anchor="middle" dominant-baseline="middle" x="614.4450239850592" y="419.25" style="font-family: Arial, sans-serif; font-size: 10px; fill: black; font-weight: normal;">1</text></g><g><path d="m0,-22l19.05255888325765,10.999999999999998l3.552713678800501e-15,21.999999999999996l-19.05255888325765,11.000000000000005l-19.05255888325765,-10.99999999999999l-1.4210854715202004e-14,-21.999999999999996z" transform="translate(409.63001599003945,0)" fill="rgb(205, 235, 166)" stroke="white"/><text text-anchor="middle" dominant-baseline="middle" x="409.63001599003945" y="0" style="font-family: Arial, sans-serif; font-size: 10px; fill: black; font-weight: normal;">1</text></g><g><path d="m0,-22l19.05255888325765,10.999999999999998l3.552713678800501e-15,21.999999999999996l-19.05255888325765,11.000000000000005l-19.05255888325765,-10.99999999999999l-1.4210854715202004e-14,-21.999999999999996z" transform="translate(428.2495621714049,161.25)" fill="rgb(205, 235, 166)" stroke="white"/><text text-anchor="middle" dominant-baseline="middle" x="428.2495621714049" y="161.25" style="font-family: Arial, sans-serif; font-size: 10px; fill: black; font-weight: normal;">1</text></g><g><path d="m0,-22l19.05255888325765,10.999999999999998l3.552713678800501e-15,21.999999999999996l-19.05255888325765,11.000000000000005l-19.05255888325765,-10.99999999999999l-1.4210854715202004e-14,-21.999999999999996z" transform="translate(242.05410035775057,161.25)" fill="rgb(180, 210, 143)" stroke="white"/><text text-anchor="middle" dominant-baseline="middle" x="242.05410035775057" y="161.25" style="font-family: Arial, sans-serif; font-size: 10px; fill: black; font-weight: normal;">2</text></g><g><path d="m0,-22l19.05255888325765,10.999999999999998l3.552713678800501e-15,21.999999999999996l-19.05255888325765,11.000000000000005l-19.05255888325765,-10.99999999999999l-1.4210854715202004e-14,-21.999999999999996z" transform="translate(223.43455417638515,0)" fill="rgb(205, 235, 166)" stroke="white"/><text text-anchor="middle" dominant-baseline="middle" x="223.43455417638515" y="0" style="font-family: Arial, sans-serif; font-size: 10px; fill: black; font-weight: normal;">1</text></g><g><path d="m0,-22l19.05255888325765,10.999999999999998l3.552713678800501e-15,21.999999999999996l-19.05255888325765,11.000000000000005l-19.05255888325765,-10.99999999999999l-1.4210854715202004e-14,-21.999999999999996z" transform="translate(74.47818472546172,0)" fill="rgb(180, 210, 143)" stroke="white"/><text text-anchor="middle" dominant-baseline="middle" x="74.47818472546172" y="0" style="font-family: Arial, sans-serif; font-size: 10px; fill: black; font-weight: normal;">2</text></g><g><path d="m0,-22l19.05255888325765,10.999999999999998l3.552713678800501e-15,21.999999999999996l-19.05255888325765,11.000000000000005l-19.05255888325765,-10.99999999999999l-1.4210854715202004e-14,-21.999999999999996z" transform="translate(595.8254778036937,387)" fill="rgb(180, 210, 143)" stroke="white"/><text text-anchor="middle" dominant-baseline="middle" x="595.8254778036937" y="387" style="font-family: Arial, sans-serif; font-size: 10px; fill: black; font-weight: normal;">2</text></g><g><path d="m0,-22l19.05255888325765,10.999999999999998l3.552713678800501e-15,21.999999999999996l-19.05255888325765,11.000000000000005l-19.05255888325765,-10.99999999999999l-1.4210854715202004e-14,-21.999999999999996z" transform="translate(316.5322850832123,290.25)" fill="rgb(205, 235, 166)" stroke="white"/><text text-anchor="middle" dominant-baseline="middle" x="316.5322850832123" y="290.25" style="font-family: Arial, sans-serif; font-size: 10px; fill: black; font-weight: normal;">1</text></g><g><path d="m0,-22l19.05255888325765,10.999999999999998l3.552713678800501e-15,21.999999999999996l-19.05255888325765,11.000000000000005l-19.05255888325765,-10.99999999999999l-1.4210854715202004e-14,-21.999999999999996z" transform="translate(297.91273890184686,322.5)" fill="rgb(205, 235, 166)" stroke="white"/><text text-anchor="middle" dominant-baseline="middle" x="297.91273890184686" y="322.5" style="font-family: Arial, sans-serif; font-size: 10px; fill: black; font-weight: normal;">1</text></g><g><path d="m0,-22l19.05255888325765,10.999999999999998l3.552713678800501e-15,21.999999999999996l-19.05255888325765,11.000000000000005l-19.05255888325765,-10.99999999999999l-1.4210854715202004e-14,-21.999999999999996z" transform="translate(595.8254778036937,0)" fill="rgb(205, 235, 166)" stroke="white"/><text text-anchor="middle" dominant-baseline="middle" x="595.8254778036937" y="0" style="font-family: Arial, sans-serif; font-size: 10px; fill: black; font-weight: normal;">1</text></g><g><path d="m0,-22l19.05255888325765,10.999999999999998l3.552713678800501e-15,21.999999999999996l-19.05255888325765,11.000000000000005l-19.05255888325765,-10.99999999999999l-1.4210854715202004e-14,-21.999999999999996z" transform="translate(297.91273890184686,387)" fill="rgb(205, 235, 166)" stroke="white"/><text text-anchor="middle" dominant-baseline="middle" x="297.91273890184686" y="387" style="font-family: Arial, sans-serif; font-size: 10px; fill: black; font-weight: normal;">1</text></g></g></g></svg>